<svg version="1.1" id="_x32_" xmlns="http://www.w3.org/2000/svg" xmlns:xlink="http://www.w3.org/1999/xlink" x="0px" y="0px" viewBox="0 0 512 512" style="width: 256px; height: 256px; opacity: 1;" xml:space="preserve">
<style type="text/css">
	.st0{fill:#439EA6;}
</style>
<g>
	<path class="st0" d="M501.324,224.282c-1.1-6.177-2.911-12.176-5.272-17.989c-4.1-10.002-10.011-19.178-17.448-27.263l-0.284-0.276
		l-57.242-55.067l-1.1-1.003l-97.32-93.602l-0.55-0.55C304.927,10.357,281.036,0,255.956,0c-24.991,0-48.988,10.357-66.081,28.533
		l-0.533,0.55l-97.337,93.602l-1.083,1.003l-57.26,55.067l-0.265,0.276c-7.456,8.085-13.366,17.261-17.448,27.263
		c-2.36,5.814-4.188,11.812-5.271,17.989c-1.012,5.458-1.545,10.996-1.545,16.632v180.121c0,18.539,5.538,35.8,15.088,50.258
		c3.354,5.085,7.259,9.806,11.626,14.172C52.211,501.82,74.823,512,100.009,512h311.982c25.08,0,47.71-10.18,64.146-26.536
		c4.366-4.366,8.182-9.088,11.555-14.172c9.62-14.458,15.176-31.719,15.176-50.258V240.913
		C502.868,235.278,502.318,229.74,501.324,224.282z M421.079,161.484l37.522,36.084l0.089,0.089
		c5.999,6.54,10.543,14.173,13.365,22.444l-50.976,29.624V161.484z M131.355,122.684l77.707-74.698l0.266-0.364
		c11.999-13.001,28.896-20.358,46.628-20.358c17.714,0,34.611,7.357,46.699,20.358l0.284,0.266l0.266,0.275l77.512,74.521
		l0.018,0.018H131.337L131.355,122.684z M109.061,144.064l0.036-0.027l3.337-3.159h287.203l3.266,3.159V260.18l-146.947,85.242
		l-146.859-85.153l-0.036-0.018V144.064z M53.293,197.658l0.089-0.089l37.504-36.057v88.197l-50.958-29.607
		C42.661,211.831,47.205,204.198,53.293,197.658z M36.395,421.034V240.913c0-0.542,0-1.181,0.089-1.722l137.576,79.882
		L43.939,451.208C39.112,442.209,36.395,431.941,36.395,421.034z M456.968,466.02c-11.537,11.537-27.44,18.717-44.977,18.717
		H100.009c-17.643,0-33.44-7.18-44.994-18.717l-0.089-0.098l135.41-137.495l65.62,38.081l65.69-38.081l135.41,137.495
		L456.968,466.02z M475.605,421.034c0,10.996-2.734,21.263-7.632,30.263L337.835,319.073l137.681-79.882
		c0.089,0.542,0.089,1.181,0.089,1.722V421.034z" style="fill: rgb(67, 158, 166);"></path>
	<rect x="168.132" y="200.125" class="st0" width="175.701" height="17.226" style="fill: rgb(67, 158, 166);"></rect>
	<rect x="168.132" y="242.528" class="st0" width="106.035" height="17.226" style="fill: rgb(67, 158, 166);"></rect>
</g>
</svg>